<svg id="e8csrge88kjo1" xmlns="http://www.w3.org/2000/svg" xmlns:xlink="http://www.w3.org/1999/xlink" viewBox="-69 -80.622100 1800 2081.244100" shape-rendering="geometricPrecision" text-rendering="geometricPrecision"><style><![CDATA[#e8csrge88kjo2_tr {animation: e8csrge88kjo2_tr__tr 3000ms linear 1 normal forwards}@keyframes e8csrge88kjo2_tr__tr { 0% {transform: translate(873.058846px,935.197978px) rotate(0deg)} 16.666667% {transform: translate(873.058846px,935.197978px) rotate(50deg)} 100% {transform: translate(873.058846px,935.197978px) rotate(45deg)} }]]></style><g id="e8csrge88kjo2_tr" transform="translate(873.058846,935.197978) rotate(0)"><path id="e8csrge88kjo2" d="M306.109860,0L309.479858,0C312.649857,0.550000,315.669855,1.710000,318.659854,2.880000C321.119853,1.640000,323.679852,0.510000,326.409851,0L331.629848,0C349.999840,3.860000,367.759832,14.070000,387.059823,10.810000C390.849821,9.930000,393.209820,13.900000,394.079820,16.990000C395.899819,23.870000,395.569819,31.140000,394.719819,38.140000C393.099820,48.520000,391.479821,58.900000,389.639822,69.240000C391.579821,66.780000,394.289819,65.340000,397.479818,65.670000C399.359817,63.210000,401.289816,59.610000,404.959815,60.120000C412.819811,60.690000,420.599807,59.280000,428.189804,57.370000C430.889803,62.800000,432.839802,68.850000,432.079802,74.990000C431.709802,79.450000,429.859803,83.580000,427.909804,87.540000C419.839808,86.550000,411.689811,85.680000,403.569815,86.630000C401.829816,84.850000,400.079817,83.100000,398.329818,81.350000C396.369818,81.460000,394.229819,82.420000,392.369820,81.500000C390.879821,80.220000,390.079821,78.340000,389.049822,76.710000C387.209823,93.760000,385.289824,110.810000,383.359824,127.850000C383.079825,129.200000,383.499824,130.500000,384.289824,131.610000C385.489823,130.350000,386.559823,128.900000,388.029822,127.910000C389.569822,127.360000,391.219821,127.970000,392.809820,128.040000C394.379819,125.980000,396.089819,124.010000,398.039818,122.280000C406.649814,122.970000,415.169810,121.190000,423.479806,119.140000C429.689803,128.980000,428.069804,141.610000,422.459807,151.320000C415.059810,149.770000,407.449813,148.250000,399.869817,149.500000C396.229819,150.500000,394.439819,146.660000,392.749820,144.230000C388.399822,144.820000,385.269824,141.830000,382.209825,139.280000C380.629826,157.480000,379.079826,175.680000,377.869827,193.900000C378.749827,192.450000,379.549826,190.940000,380.609826,189.600000C381.949825,187.680000,384.349824,189.360000,386.149823,189.420000C388.279822,186.970000,390.469821,183.730000,394.089820,183.690000C401.209816,183.520000,408.429813,183.070000,415.189810,180.610000C417.819809,183.920000,420.219808,187.660000,420.679807,191.960000C421.599807,198.510000,419.069808,204.790000,416.839809,210.800000C408.479813,210.860000,400.119817,209.210000,391.769821,210.310000C389.929821,208.790000,388.229822,207.100000,386.659823,205.320000C384.939824,205.590000,383.019825,206.810000,381.409825,205.600000C379.859826,204.450000,378.779827,202.820000,377.569827,201.350000C376.979827,214.580000,376.009828,227.800000,375.339828,241.030000C375.289828,245.580000,371.869830,248.920000,369.009831,252.040000C355.079837,267.280000,347.139841,287.540000,345.619842,308.010000C349.369840,518.010000,353.219838,728.020000,356.979836,938.030000C357.539836,960.400000,357.589836,982.789900,358.329836,1005.150000C360.099835,1019.540000,362.939834,1033.980000,368.629831,1047.380000C373.259829,1057.569900,372.249830,1069.060100,372.799829,1079.949900C373.349829,1096.630000,372.519829,1113.510000,375.939828,1129.959900C379.419826,1147.520000,388.739822,1164.089900,402.889815,1175.239900C416.349809,1186.180000,434.639801,1192.060000,451.829793,1188.029900C469.479785,1184.119900,483.529779,1171.069800,493.299774,1156.409900C498.609772,1148.119900,508.059767,1142.429900,517.989763,1142.429900C523.899760,1142.379900,529.809757,1144.919900,533.649756,1149.459800C537.769754,1154.129800,539.199753,1160.369800,540.799752,1166.219800C545.889750,1185.369800,546.399750,1205.779900,541.759752,1225.069800C537.879754,1241.789900,530.549757,1257.449800,522.589761,1272.579800C512.779765,1291.599800,504.109769,1311.669900,501.359770,1333.059900C499.309771,1348.399900,501.189770,1364.339800,507.399768,1378.559900C514.079765,1394.329800,525.429759,1407.519900,538.059754,1418.849800C563.789742,1443.909900,586.929731,1471.869800,604.949723,1503.009800C628.219712,1542.769800,641.869706,1588.249800,642.999706,1634.379800L642.999706,1648.509800C641.689706,1689.649800,631.639711,1730.139800,616.099718,1768.139800C613.579719,1774.119800,611.409720,1780.319700,607.749722,1785.739800C591.709729,1811.239800,571.409738,1834.129800,547.509749,1852.509800C519.459762,1874.239800,486.899777,1889.669800,453.019793,1899.899800C411.369812,1912.579700,367.859832,1917.759800,324.499851,1919.999800L319.399854,1919.999800C275.779874,1918.389800,232.109894,1912.429900,190.369913,1899.379800C157.759928,1889.189700,126.299942,1874.579800,98.749955,1854.239800C73.299966,1835.509800,51.479976,1811.739800,35.599984,1784.379800C17.689992,1753.730000,7.289997,1719.100000,2.859999,1684C1.349999,1672.510000,0.660000,1660.939900,-0,1649.390000L-0,1627.530000C-0.040000,1610.280000,3.999998,1593.390000,8.869996,1576.949900C27.619987,1515.180000,63.079971,1459.069900,108.329950,1413.280000C113.359948,1408.300000,118.599946,1403.469900,122.569944,1397.569900C132.049940,1384.119900,135.919938,1367.270000,134.909938,1350.969900C133.759939,1330.819900,126.609942,1311.479900,117.149946,1293.819900C112.189949,1284.319900,105.779952,1275.660000,101.049954,1266.040000C86.819960,1238.839900,78.659964,1207.520000,83.299962,1176.790000C87.219960,1149.729900,101.429954,1124.839900,120.969945,1105.979900C131.499940,1095.859900,143.149934,1086.670000,156.369928,1080.300000C170.999922,1073.130000,186.459915,1067.790000,202.129907,1063.390000C217.999900,1059.040000,234.189893,1055.579900,250.639885,1054.370000C254.509883,806.910000,258.409882,559.440000,262.289880,311.970000C262.259880,302.270000,264.929879,292.700000,264.049879,282.990000C263.169879,272.060000,258.129882,261.960000,251.859885,253.150000C250.359885,251.030000,248.419886,249.210000,247.199887,246.910000C246.029887,244.110000,246.449887,241,246.599887,238.060000C247.339887,229.450000,247.669887,220.810000,248.359886,212.190000C245.969887,211.750000,243.589888,211.320000,241.209890,210.900000C239.709890,213.340000,239.539890,217.860000,236.019892,218.120000C227.719896,219.290000,219.379900,220.230000,211.009903,220.750000C205.889906,210.600000,204.939906,197.290000,212.629903,188.130000C220.559899,188.690000,228.479895,189.320000,236.419892,189.770000C237.739891,191.910000,239.089890,194.020000,240.369890,196.190000C243.219889,196.160000,246.069887,196.180000,248.929886,196.130000C249.619886,180.400000,250.279885,164.680000,250.749885,148.950000C248.259886,148.600000,245.389888,147.380000,243.119889,149.070000C241.259890,150.240000,240.939890,152.600000,240.139890,154.470000C231.469894,154.250000,223.019898,156.380000,214.699902,158.570000C208.689904,148.780000,209.209904,136.390000,214.029902,126.240000C222.479898,127.640000,231.049894,128.540000,239.619890,128.080000C240.859890,129.650000,242.109889,131.220000,243.359889,132.790000C245.879887,132.700000,248.409886,132.590000,250.939885,132.480000C250.709885,117.260000,250.519885,102.030000,250.299885,86.810000C248.359886,86.520000,246.049887,85.750000,244.439888,87.330000C242.239889,88.790000,241.149890,92.230000,238.099891,92.020000C229.689895,92.380000,221.529899,94.550000,213.269902,95.940000C208.279905,86.280000,207.589905,73.840000,213.929902,64.620000C221.279899,65.630000,228.709895,65.780000,236.119892,65.710000C239.689890,65.450000,241.809889,68.680000,244.339888,70.580000C245.959887,71.260000,247.709887,70.380000,249.339886,70.140000C248.549886,56.100000,247.779887,42.050000,246.979887,28C246.849887,24.710000,246.249887,21.370000,246.859887,18.100000C247.659887,14.970000,251.209885,14.280000,253.959884,13.990000C267.159878,12.480000,280.099872,9.120000,292.649866,4.800000C297.159864,3.270000,301.469862,1.150000,306.109860,0Z" transform="translate(-321.499889,-960)" fill="rgb(0,0,0)" stroke="none" stroke-width="1"/></g></svg>